<?xml version="1.0" encoding="UTF-8"?>
<svg version="1.1" xmlns="http://www.w3.org/2000/svg" width="225" height="225">
<path d="M0 0 C1.2065625 0.99386719 1.2065625 0.99386719 2.4375 2.0078125 C23.56435482 19.89961768 35.24981002 45.73467564 38 73 C39.97895559 98.43388143 32.85413414 125.24800384 17 145.4375 C15.67990854 146.96984146 14.34663418 148.49093135 13 150 C12.33742187 150.804375 11.67484375 151.60875 10.9921875 152.4375 C-6.89961768 173.56435482 -32.73467564 185.24981002 -60 188 C-85.43388143 189.97895559 -112.24800384 182.85413414 -132.4375 167 C-133.97001906 165.68011472 -135.49107119 164.34679088 -137 163 C-137.81597656 162.32582031 -138.63195312 161.65164062 -139.47265625 160.95703125 C-160.6573146 142.98117741 -172.52138605 116.3198338 -175 89 C-176.76452802 60.7675517 -167.59049597 34.92909146 -150 13 C-149.33484375 12.15566406 -148.6696875 11.31132813 -147.984375 10.44140625 C-131.47331621 -9.25212762 -105.79632333 -21.28085474 -80.625 -24.6875 C-51.55286927 -27.16284446 -22.05662398 -19.68247348 0 0 Z M-78.94165039 -2.01220703 C-79.59627762 -1.80084106 -80.25090485 -1.5894751 -80.92536926 -1.3717041 C-83.06942915 -0.67676917 -85.20842354 0.03254664 -87.34765625 0.7421875 C-88.8475641 1.23153303 -90.34776776 1.71997274 -91.84825134 2.20755005 C-95.78622976 3.48988563 -99.7200568 4.78451921 -103.65313721 6.08178711 C-107.64715474 7.39670166 -111.64503432 8.69976027 -115.64257812 10.00390625 C-125.77000525 13.31072971 -135.89482732 16.62567916 -146 20 C-145.67 21.32 -145.34 22.64 -145 24 C-94.51 24 -44.02 24 8 24 C8.33 22.68 8.66 21.36 9 20 C-9.10701346 13.888357 -27.24320703 7.9061783 -45.50195312 2.26220703 C-46.74912109 1.87661621 -47.99628906 1.49102539 -49.28125 1.09375 C-50.44785156 0.73539063 -51.61445313 0.37703125 -52.81640625 0.0078125 C-56.20212535 -1.06398569 -59.53963327 -2.2359097 -62.85742188 -3.50195312 C-68.53401125 -4.82148849 -73.50538084 -3.79345865 -78.94165039 -2.01220703 Z M-137 30 C-137 32.97 -137 35.94 -137 39 C-91.79 39 -46.58 39 0 39 C0 36.03 0 33.06 0 30 C-45.21 30 -90.42 30 -137 30 Z M-136 45 C-136 45.66 -136 46.32 -136 47 C-135.360625 47.103125 -134.72125 47.20625 -134.0625 47.3125 C-133.381875 47.539375 -132.70125 47.76625 -132 48 C-130.97628615 51.07114155 -130.86966103 53.18148031 -130.8581543 56.3984375 C-130.85111984 57.50388916 -130.84408539 58.60934082 -130.83683777 59.74829102 C-130.83059135 61.54351196 -130.83059135 61.54351196 -130.82421875 63.375 C-130.8010072 65.91276859 -130.77688934 68.45052902 -130.75195312 70.98828125 C-130.7169429 74.98630179 -130.6875547 78.98377863 -130.67407227 82.98193359 C-130.65850744 86.84249005 -130.61822687 90.70217617 -130.57421875 94.5625 C-130.57612717 95.74312012 -130.57803558 96.92374023 -130.58000183 98.14013672 C-130.44941369 107.09365858 -129.27807645 115.9468189 -122.875 122.6875 C-119.20155663 125.41295799 -115.85457534 125.75861434 -111.359375 125.4453125 C-106.90789762 124.60513299 -104.29767489 122.68909313 -101.5625 119.12890625 C-97.94370854 113.6904384 -96.8934352 109.11854306 -96.82641602 102.58642578 C-96.81292618 101.52827667 -96.79943634 100.47012756 -96.78553772 99.37991333 C-96.77509933 98.24649506 -96.76466095 97.11307678 -96.75390625 95.9453125 C-96.72097155 93.5325484 -96.68775984 91.11978808 -96.65429688 88.70703125 C-96.60688927 84.91294914 -96.56243673 81.11888272 -96.52319336 77.32470703 C-96.48339834 73.65641683 -96.43187748 69.98843282 -96.37890625 66.3203125 C-96.3704921 65.19094269 -96.36207794 64.06157288 -96.35340881 62.89797974 C-96.26470671 57.22442698 -95.91583851 52.35706582 -94 47 C-86.63927655 46.5092851 -86.63927655 46.5092851 -83.89657593 48.61460876 C-81.4018449 51.75232102 -81.50448094 53.57549331 -81.51416016 57.55688477 C-81.51036346 58.20613922 -81.50656677 58.85539368 -81.50265503 59.52432251 C-81.4952638 61.6638467 -81.51660686 63.80200344 -81.5390625 65.94140625 C-81.54144766 67.43065735 -81.54235209 68.9199115 -81.5418396 70.40916443 C-81.54496499 73.52711886 -81.56151088 76.64461261 -81.58837891 79.76245117 C-81.6223882 83.7596629 -81.63000651 87.75636936 -81.62848854 91.75370884 C-81.62903224 94.82749762 -81.63999878 97.90117588 -81.65449142 100.9749279 C-81.66085636 102.44892478 -81.66479761 103.92293417 -81.66627884 105.39694405 C-81.67061356 107.45568326 -81.68811637 109.51388583 -81.70947266 111.57250977 C-81.72090805 113.32979149 -81.72090805 113.32979149 -81.73257446 115.12257385 C-82 118 -82 118 -84 121 C-86.625 121.6875 -86.625 121.6875 -89 122 C-89 122.33 -89 122.66 -89 123 C-84.16200639 123.09951569 -79.32461975 123.17177037 -74.48583984 123.21972656 C-72.8428305 123.23973571 -71.19989141 123.26695213 -69.55712891 123.30175781 C-67.18374212 123.35075305 -64.81130351 123.37307504 -62.4375 123.390625 C-61.71320801 123.41127014 -60.98891602 123.43191528 -60.24267578 123.45318604 C-54.20219396 123.45579269 -48.97433099 121.74020723 -44.46704102 117.58770752 C-39.37065525 111.79574901 -38.52984859 106.49045841 -38.6953125 99.0078125 C-39.23672951 93.66305483 -40.74636326 89.85460247 -44.94140625 86.40234375 C-48.14625053 84.28348722 -50.09767621 83 -54 83 C-54 82.34 -54 81.68 -54 81 C-52.6696875 80.6596875 -52.6696875 80.6596875 -51.3125 80.3125 C-47.51769499 78.80889801 -45.63349146 77.08494714 -43 74 C-40.881194 67.643582 -40.83116735 59.62385172 -43.5625 53.4375 C-45.95379215 49.41809404 -48.75809983 47.86048253 -53 46 C-56.3471638 45.1823443 -59.44227548 44.8772029 -62.88208008 44.88647461 C-64.29297661 44.88658791 -64.29297661 44.88658791 -65.7323761 44.88670349 C-67.2357679 44.89444542 -67.2357679 44.89444542 -68.76953125 44.90234375 C-70.32374031 44.90446617 -70.32374031 44.90446617 -71.90934753 44.90663147 C-75.21042804 44.91221758 -78.51144008 44.92476758 -81.8125 44.9375 C-84.05403548 44.94251679 -86.29557202 44.94707939 -88.53710938 44.95117188 C-94.02476284 44.96218247 -99.51237653 44.97890682 -105 45 C-105 45.66 -105 46.32 -105 47 C-104.38125 47.04125 -103.7625 47.0825 -103.125 47.125 C-101 48 -101 48 -99.88378906 50.42919922 C-98.7476689 55.01950131 -98.71354894 59.29723812 -98.734375 64.0078125 C-98.73150482 65.45062088 -98.73150482 65.45062088 -98.72857666 66.9225769 C-98.72721894 68.95489768 -98.73088647 70.98722726 -98.73925781 73.01953125 C-98.74989261 76.09395422 -98.73938485 79.16778344 -98.7265625 82.2421875 C-98.70714784 108.95486471 -98.70714784 108.95486471 -104 117 C-107.73255448 119.48836965 -109.58440935 119.54226552 -114 119 C-117.78450157 115.41468272 -118.8914806 112.34619413 -119.12698364 107.25460815 C-119.12777924 106.20362946 -119.12857483 105.15265076 -119.12939453 104.06982422 C-119.13254669 102.87533661 -119.13569885 101.680849 -119.13894653 100.45016479 C-119.1369223 99.16465729 -119.13489807 97.87914978 -119.1328125 96.5546875 C-119.13348633 95.2199807 -119.13445702 93.88527401 -119.13571167 92.55056763 C-119.13718389 89.75814644 -119.1350487 86.9657573 -119.13037109 84.17333984 C-119.124663 80.59090067 -119.12796262 77.00853624 -119.13394356 73.42609978 C-119.13841986 70.01062297 -119.13528905 66.59516643 -119.1328125 63.1796875 C-119.13483673 61.89013153 -119.13686096 60.60057556 -119.13894653 59.27194214 C-119.13579437 58.08375885 -119.13264221 56.89557556 -119.12939453 55.67138672 C-119.12859894 54.62199921 -119.12780334 53.57261169 -119.12698364 52.49142456 C-119 50 -119 50 -118 48 C-116.35636866 47.27840576 -114.68949614 46.60648579 -113 46 C-113 45.67 -113 45.34 -113 45 C-120.59 45 -128.18 45 -136 45 Z M-49 45 C-47.02 47.64 -45.04 50.28 -43 53 C-39.97634793 53.26919464 -39.97634793 53.26919464 -37.75 51.5625 C-34.4808825 49.70504687 -31.70403057 49.44778773 -28 49 C-28.08432913 57.94482079 -28.17918325 66.88944964 -28.28752708 75.83401203 C-28.3375021 79.98720768 -28.38383194 84.14037773 -28.421875 88.29370117 C-28.45871273 92.30086927 -28.50506836 96.30782394 -28.55806351 100.3148098 C-28.57661555 101.84459888 -28.59172053 103.37443373 -28.60334396 104.90429115 C-28.62019284 107.0448969 -28.6492236 109.18501299 -28.68115234 111.32543945 C-28.69447601 112.54455521 -28.70779968 113.76367096 -28.7215271 115.01972961 C-29 118 -29 118 -31 121 C-32.98 121.99 -32.98 121.99 -35 123 C-26.75 123 -18.5 123 -10 123 C-11.32 122.34 -12.64 121.68 -14 121 C-16.82574196 118.17425804 -16.27626762 116.30711157 -16.31884766 112.34716797 C-16.32889328 111.66412598 -16.3389389 110.98108398 -16.34928894 110.27734375 C-16.3802237 108.01563371 -16.39718423 105.75404256 -16.4140625 103.4921875 C-16.43276592 101.92561818 -16.4523387 100.35905901 -16.4727478 98.79251099 C-16.52416252 94.66617817 -16.56373803 90.53981266 -16.60089111 86.41333008 C-16.64087241 82.2038559 -16.69199146 77.99451882 -16.7421875 73.78515625 C-16.83905728 65.52353101 -16.92342645 57.26183815 -17 49 C-15.38339597 49.22035192 -13.77068352 49.46938354 -12.16015625 49.73046875 C-10.81256226 49.93385864 -10.81256226 49.93385864 -9.43774414 50.14135742 C-7 51 -7 51 -5.44824219 53.08422852 C-3.72469179 56.8839494 -2.53498912 60.85383434 -2 65 C-1.67 65 -1.34 65 -1 65 C-1 58.4 -1 51.8 -1 45 C-16.84 45 -32.68 45 -49 45 Z M-131 130 C-131 131.65 -131 133.3 -131 135 C-89.75 134.67 -48.5 134.34 -6 134 C-6 132.68 -6 131.36 -6 130 C-47.25 130 -88.5 130 -131 130 Z M-139 140 C-139 143.3 -139 146.6 -139 150 C-92.47 150 -45.94 150 2 150 C2 146.7 2 143.4 2 140 C-44.53 140 -91.06 140 -139 140 Z " fill="#233E80" transform="translate(181,31)"/>
<path d="M0 0 C2.37895626 2.3052204 2.96080687 3.69159151 3.38095093 6.99768066 C3.3845311 8.75163147 3.3845311 8.75163147 3.38818359 10.54101562 C3.39344055 11.18866379 3.39869751 11.83631195 3.40411377 12.50358582 C3.41728551 14.63805471 3.40858646 16.77177392 3.3984375 18.90625 C3.40045907 20.39310855 3.4033712 21.87996613 3.40713501 23.36682129 C3.4115545 26.48048356 3.40513962 29.59388735 3.39111328 32.70751953 C3.37402131 36.69574814 3.38386454 40.68337106 3.40183067 44.67157745 C3.41267881 47.74111482 3.40921751 50.81050894 3.4014473 53.88005066 C3.39944812 55.35043917 3.40189466 56.82084074 3.40888596 58.29121399 C3.41651775 60.34748716 3.40487377 62.40278381 3.38818359 64.45898438 C3.38579681 65.62828491 3.38341003 66.79758545 3.38095093 68.00231934 C2.96772887 71.25393968 2.20092943 72.62689041 0 75 C4.16258147 75.04969106 8.32500261 75.08585642 12.48779297 75.10986328 C13.90188609 75.11987856 15.31595873 75.13349474 16.72998047 75.15087891 C18.77055946 75.17532559 20.81086303 75.18652784 22.8515625 75.1953125 C24.07697754 75.20578613 25.30239258 75.21625977 26.56494141 75.22705078 C30.03833297 74.99746626 32.76606976 74.2511457 36 73 C35.505 74.485 35.505 74.485 35 76 C30.11093221 77.85600287 25.73060444 78.23842825 20.53515625 78.1953125 C19.51789711 78.19106766 19.51789711 78.19106766 18.48008728 78.18673706 C16.34070234 78.17565416 14.2017557 78.1505736 12.0625 78.125 C10.60091756 78.11495476 9.13932847 78.10583163 7.67773438 78.09765625 C4.11835021 78.07575425 0.55921797 78.04130866 -3 78 C-3 78.99 -3 79.98 -3 81 C-1.46237755 80.99666908 -1.46237755 80.99666908 0.10630798 80.99327087 C9.7450696 80.97303959 19.38382694 80.95802793 29.02260494 80.94818783 C33.97853922 80.94295897 38.93445642 80.93586126 43.89038086 80.92456055 C48.66898836 80.91373178 53.44757938 80.90772319 58.2261982 80.90512276 C60.05353619 80.90326849 61.88087324 80.89964784 63.70820427 80.89426994 C66.25853329 80.88705964 68.80879337 80.88600905 71.35913086 80.88647461 C72.12229614 80.88287933 72.88546143 80.87928406 73.67175293 80.87557983 C78.88594784 80.88594784 78.88594784 80.88594784 80 82 C80 83.98 80 85.96 80 88 C57.23 88 34.46 88 11 88 C11 87.67 11 87.34 11 87 C33.11 87 55.22 87 78 87 C78 85.68 78 84.36 78 83 C37.08 83 -3.84 83 -46 83 C-46.33 82.34 -46.66 81.68 -47 81 C-46.26362305 80.98018066 -45.52724609 80.96036133 -44.76855469 80.93994141 C-41.42867944 80.84462172 -38.08942361 80.73497004 -34.75 80.625 C-33.59113281 80.5940625 -32.43226562 80.563125 -31.23828125 80.53125 C-30.12324219 80.49257812 -29.00820312 80.45390625 -27.859375 80.4140625 C-26.31975098 80.36693115 -26.31975098 80.36693115 -24.74902344 80.31884766 C-22.03132927 80.00363375 -20.33075565 79.38967649 -18 78 C-18 77.01 -18 76.02 -18 75 C-19.32 75.99 -20.64 76.98 -22 78 C-22.495 77.01 -22.495 77.01 -23 76 C-22.236875 75.46375 -21.47375 74.9275 -20.6875 74.375 C-16.42299509 70.60636776 -14.8979377 66.50523975 -14 61 C-13.90444855 59.19724011 -13.85493366 57.39167184 -13.84228516 55.58642578 C-13.83202301 54.52827667 -13.82176086 53.47012756 -13.81118774 52.37991333 C-13.80388641 51.24649506 -13.79658508 50.11307678 -13.7890625 48.9453125 C-13.76099817 46.53254525 -13.73233374 44.11978492 -13.703125 41.70703125 C-13.66185801 37.91292484 -13.62495801 34.11894824 -13.59863281 30.32470703 C-13.57098993 26.65630636 -13.52512411 22.98848799 -13.4765625 19.3203125 C-13.47330963 18.19094269 -13.47005676 17.06157288 -13.46670532 15.89797974 C-13.37326844 9.89433337 -13.10125022 5.2241679 -10 0 C-6.20519658 -1.26493447 -3.87641726 -0.89988258 0 0 Z " fill="#1F3A7B" transform="translate(97,78)"/>
<path d="M0 0 C1.40844177 0.43698463 1.40844177 0.43698463 2.84533691 0.88279724 C5.81182489 1.80775056 8.76779612 2.76123339 11.72265625 3.72265625 C12.78995468 4.06880478 13.85725311 4.41495331 14.95689392 4.77159119 C17.19006685 5.49710712 19.42277418 6.22405765 21.6550293 6.95239258 C25.08245091 8.06899973 28.51282306 9.17620776 31.94335938 10.28320312 C34.11997794 10.99161544 36.29641691 11.70057982 38.47265625 12.41015625 C39.49964127 12.74040298 40.52662628 13.07064972 41.58473206 13.41090393 C42.53009323 13.72140182 43.47545441 14.03189972 44.44946289 14.35180664 C45.28232315 14.62255508 46.11518341 14.89330353 46.97328186 15.17225647 C49 16 49 16 51 18 C10.41 18 -30.18 18 -72 18 C-71 16 -71 16 -69.27230835 15.26164246 C-68.14437363 14.91786308 -68.14437363 14.91786308 -66.99365234 14.56713867 C-66.14120941 14.30313766 -65.28876648 14.03913666 -64.41049194 13.76713562 C-63.47838898 13.48691055 -62.54628601 13.20668549 -61.5859375 12.91796875 C-60.62410553 12.62191238 -59.66227356 12.32585602 -58.67129517 12.02082825 C-55.57469848 11.06913426 -52.47502964 10.12794492 -49.375 9.1875 C-46.33429229 8.25842171 -43.29427419 7.32715939 -40.25494385 6.39358521 C-38.27077445 5.78591327 -36.28521387 5.18276499 -34.29827881 4.584198 C-30.00614129 3.28270327 -25.7618466 1.9528686 -21.57910156 0.33056641 C-20.91810455 0.08115799 -20.25710754 -0.16825043 -19.57608032 -0.42521667 C-17.88538878 -1.07561892 -16.20864005 -1.76197095 -14.53369141 -2.4519043 C-9.23885977 -3.2731629 -5.02246228 -1.64687095 0 0 Z " fill="#233F82" transform="translate(123,33)"/>
<path d="M0 0 C24.26702142 19.21283436 40.0040895 44.28894548 45.23828125 74.98046875 C47.17582012 107.92598734 41.80465185 138.33451937 19.73046875 164.19921875 C0.51068774 185.64825335 -25.39858756 202.38832185 -54.95532227 204.17333984 C-90.75337167 205.01289327 -119.36907904 197.34038849 -146.38671875 172.57421875 C-159.98899026 159.46959132 -169.85275713 142.88062393 -175.76171875 124.98046875 C-175.97344727 124.34286621 -176.18517578 123.70526367 -176.40332031 123.04833984 C-182.27204186 104.35864736 -182.54304122 80.69369673 -176.76171875 61.98046875 C-176.55772461 61.30806152 -176.35373047 60.6356543 -176.14355469 59.94287109 C-166.66862635 29.30451113 -146.00582255 4.98700503 -117.8203125 -10.05566406 C-80.44605644 -29.14569732 -33.7272443 -24.66334555 0 0 Z M-138.76171875 5.98046875 C-139.55449219 6.63144531 -140.34726563 7.28242188 -141.1640625 7.953125 C-164.34497936 27.54521113 -175.91368326 55.26728371 -178.76171875 84.98046875 C-180.82802901 110.32146817 -172.44461306 138.39259972 -156.76171875 158.41796875 C-155.44353413 159.95195086 -154.11011651 161.4729757 -152.76171875 162.98046875 C-152.06433594 163.80804688 -151.36695313 164.635625 -150.6484375 165.48828125 C-131.53524698 187.69081518 -103.73943666 200.54814217 -74.76171875 202.98046875 C-44.67946072 204.83418627 -15.44659056 194.50745723 7.20678711 174.78588867 C29.98595495 154.25610071 42.84405127 126.22639099 44.5234375 95.66015625 C45.51696993 65.0387032 33.87385002 35.98319164 13.02124023 13.72265625 C-8.28625746 -8.20008837 -36.86221918 -19.46035969 -67.26171875 -20.39453125 C-93.22858054 -19.59657391 -119.16860939 -11.49999229 -138.76171875 5.98046875 Z " fill="#2B3E61" transform="translate(179.76171875,21.01953125)"/>
<path d="M0 0 C1.12588014 0.95729916 2.2506715 1.91587895 3.375 2.875 C4.00148437 3.40867187 4.62796875 3.94234375 5.2734375 4.4921875 C6.55836651 5.61432007 7.79371975 6.79371975 9 8 C9.845625 7.34 10.69125 6.68 11.5625 6 C15.47464273 3.72384423 17.56899848 3.83140066 22 4 C22.06951349 12.92736048 22.12281799 21.85462778 22.15543652 30.78219986 C22.17109187 34.92765106 22.19232757 39.07291709 22.22631836 43.21826172 C22.25891675 47.21883718 22.276854 51.21923453 22.28463173 55.21993256 C22.2901744 56.74617059 22.30099794 58.27239889 22.31719017 59.7985611 C22.33897148 61.93655963 22.34196673 64.07382241 22.34057617 66.21191406 C22.34723801 67.4288092 22.35389984 68.64570435 22.36076355 69.8994751 C22 73 22 73 19 77 C25.93 77.33 32.86 77.66 40 78 C39.67 78.66 39.34 79.32 39 80 C35.63634619 80.94208486 32.60639225 81.08037116 29.13671875 80.87890625 C28.25048828 80.83056641 27.36425781 80.78222656 26.45117188 80.73242188 C25.53916016 80.67634766 24.62714844 80.62027344 23.6875 80.5625 C22.75615234 80.51029297 21.82480469 80.45808594 20.86523438 80.40429688 C18.57643647 80.2751852 16.28813814 80.14024585 14 80 C13.67 78.68 13.34 77.36 13 76 C14.98 75.01 14.98 75.01 17 74 C15.35 73.67 13.7 73.34 12 73 C12 72.34 12 71.68 12 71 C13.485 70.01 13.485 70.01 15 69 C14.01 69 13.02 69 12 69 C11.773125 69.804375 11.54625 70.60875 11.3125 71.4375 C10.6628125 72.7059375 10.6628125 72.7059375 10 74 C7.5 74.75 7.5 74.75 5 75 C4.01 75.495 4.01 75.495 3 76 C4.17309786 73.45828796 5.4908497 71.27116256 7.0625 68.9375 C10.81198367 63.25279895 10.56247146 57.61533601 10 51 C8.97846617 46.50231148 7.42037787 43.91055572 3.5078125 41.40234375 C1.03880235 40.14685558 -1.4264508 39.02156152 -4 38 C-4 37.34 -4 36.68 -4 36 C-2.08073296 34.70073371 -0.0746115 33.62560667 1.95703125 32.51171875 C4.54672611 30.59544358 5.64386236 28.92155577 7 26 C8.12197511 18.10574269 7.39786634 11.65962617 3 5 C2.01 4.34 1.02 3.68 0 3 C0 2.01 0 1.02 0 0 Z " fill="#213B7A" transform="translate(131,76)"/>
<path d="M0 0 C1.75424538 -0.00422974 1.75424538 -0.00422974 3.54393005 -0.00854492 C4.83851639 -0.00652069 6.13310272 -0.00449646 7.46691895 -0.00241089 C8.83488512 -0.00376491 10.20285093 -0.00554485 11.57081604 -0.00772095 C15.29592081 -0.01229516 19.02099801 -0.01050577 22.74610329 -0.00734186 C26.63607485 -0.0048182 30.52604398 -0.00715582 34.41601562 -0.00872803 C40.94975205 -0.01054971 47.4834772 -0.00814346 54.01721191 -0.00338745 C61.5817739 0.00205517 69.14630893 0.00029251 76.71087027 -0.00521386 C83.19408191 -0.00974504 89.67728542 -0.01039551 96.16049814 -0.00777519 C100.03770292 -0.00621244 103.91489502 -0.00601858 107.792099 -0.00931168 C111.43637294 -0.01219047 115.08061198 -0.01021456 118.72488213 -0.00441742 C120.70827562 -0.00245424 122.69167205 -0.00544367 124.67506409 -0.00854492 C125.844561 -0.0057251 127.01405792 -0.00290527 128.21899414 0 C129.24180733 0.00037703 130.26462051 0.00075405 131.31842804 0.0011425 C133.60949707 0.12698364 133.60949707 0.12698364 134.60949707 1.12698364 C134.70800878 2.95814247 134.73922336 4.79318298 134.73449707 6.62698364 C134.7370752 7.62729614 134.73965332 8.62760864 134.74230957 9.65823364 C134.60949707 12.12698364 134.60949707 12.12698364 133.60949707 13.12698364 C131.81486939 13.22555684 130.01632682 13.25330476 128.21899414 13.25396729 C126.46474876 13.25819702 126.46474876 13.25819702 124.67506409 13.26251221 C123.38047775 13.26048798 122.08589142 13.25846375 120.7520752 13.25637817 C119.38410902 13.2577322 118.01614321 13.25951213 116.6481781 13.26168823 C112.92307333 13.26626245 109.19799613 13.26447306 105.47289085 13.26130915 C101.58291929 13.25878548 97.69295016 13.2611231 93.80297852 13.26269531 C87.26924209 13.26451699 80.73551694 13.26211075 74.20178223 13.25735474 C66.63722024 13.25191212 59.07268521 13.25367478 51.50812387 13.25918114 C45.02491223 13.26371232 38.54170872 13.2643628 32.058496 13.26174247 C28.18129122 13.26017973 24.30409912 13.25998587 20.42689514 13.26327896 C16.7826212 13.26615775 13.13838216 13.26418185 9.49411201 13.2583847 C7.51071852 13.25642153 5.52732209 13.25941095 3.54393005 13.26251221 C2.37443314 13.25969238 1.20493622 13.25687256 0 13.25396729 C-1.02281319 13.25359026 -2.04562637 13.25321323 -3.0994339 13.25282478 C-5.39050293 13.12698364 -5.39050293 13.12698364 -6.39050293 12.12698364 C-6.48901464 10.29582481 -6.52022922 8.46078431 -6.51550293 6.62698364 C-6.51808105 5.62667114 -6.52065918 4.62635864 -6.52331543 3.59573364 C-6.27939868 -0.93824834 -4.00512139 0.00147635 0 0 Z M-4.39050293 2.12698364 C-4.39050293 5.09698364 -4.39050293 8.06698364 -4.39050293 11.12698364 C40.81949707 11.12698364 86.02949707 11.12698364 132.60949707 11.12698364 C132.60949707 8.15698364 132.60949707 5.18698364 132.60949707 2.12698364 C87.39949707 2.12698364 42.18949707 2.12698364 -4.39050293 2.12698364 Z " fill="#092769" transform="translate(48.3905029296875,58.873016357421875)"/>
<path d="M0 0 C1.61713467 0.29265836 3.23274516 0.59374813 4.84765625 0.8984375 C5.74750244 1.06520996 6.64734863 1.23198242 7.57446289 1.40380859 C10.85825151 2.21095623 12.13968121 3.17231544 14 6 C17.57495704 12.88452425 18.21585358 19.837297 15.875 27.25 C14.07356436 31.47872216 11.89122532 33.55844686 8 36 C4.75 36.5 4.75 36.5 2 36 C-0.42869909 32.35695136 -0.25675675 29.69277661 -0.1953125 25.48828125 C-0.1924826 24.76005661 -0.18965271 24.03183197 -0.18673706 23.28153992 C-0.17555257 20.95835863 -0.15045166 18.63556453 -0.125 16.3125 C-0.11496794 14.7363337 -0.10584248 13.16016135 -0.09765625 11.58398438 C-0.07561896 7.72250733 -0.04110141 3.86131929 0 0 Z " fill="#203A7A" transform="translate(112,115)"/>
<path d="M0 0 C8.28489894 3.75809849 15.14848732 8.03112986 22 14 C23.21623047 14.99966797 23.21623047 14.99966797 24.45703125 16.01953125 C31.62543314 22.10420624 40.95571764 30.86715291 44 40 C43.01 39.67 42.02 39.34 41 39 C41 38.34 41 37.68 41 37 C40.01 36.67 39.02 36.34 38 36 C37.29848848 34.6846659 36.63474075 33.34882408 36 32 C34.4587688 30.29078411 34.4587688 30.29078411 33 29 C33.0825 30.0725 33.165 31.145 33.25 32.25 C33 36 33 36 31.4375 38.375 C25.93818931 42.04120713 19.03655757 40.98482856 12.72509766 40.56640625 C1.14651247 39.91306186 -10.40234395 39.88370304 -21.99644852 39.92483521 C-25.69770122 39.93783774 -29.39891727 39.94417294 -33.10018921 39.94897461 C-40.94180958 39.9602747 -48.78339887 39.97954721 -56.625 40 C-65.75843466 40.02370582 -74.89185223 40.04403025 -84.02531052 40.05593872 C-87.65399282 40.06237135 -91.28262073 40.07486943 -94.9112854 40.08764648 C-97.14739944 40.09128067 -99.38351396 40.09463219 -101.61962891 40.09765625 C-103.10979523 40.10540573 -103.10979523 40.10540573 -104.63006592 40.11331177 C-111.13732004 40.11379772 -117.5304066 39.69436774 -124 39 C-123.67 38.01 -123.34 37.02 -123 36 C-123 36.66 -123 37.32 -123 38 C-72.51 37.67 -22.02 37.34 30 37 C30.33 36.01 30.66 35.02 31 34 C28.03 33.34 25.06 32.68 22 32 C22.66 30.68 23.32 29.36 24 28 C24.33 27.01 24.66 26.02 25 25 C26.32 25 27.64 25 29 25 C28.01 22.525 28.01 22.525 27 20 C26.236875 20.20625 25.47375 20.4125 24.6875 20.625 C22 21 22 21 19 19 C18.67 18.34 18.34 17.68 18 17 C18.99 16.67 19.98 16.34 21 16 C13.50684723 9.72819801 13.50684723 9.72819801 5 5 C2.125 3.4375 2.125 3.4375 0 2 C0 1.34 0 0.68 0 0 Z " fill="#263B70" transform="translate(159,17)"/>
<path d="M0 0 C0.66 0 1.32 0 2 0 C2.33 1.32 2.66 2.64 3 4 C3.66 4 4.32 4 5 4 C5.7734375 5.4540625 5.7734375 5.4540625 6.5625 6.9375 C9.23659526 11.64854147 12.60477203 15.79411367 16 20 C16.66 18.68 17.32 17.36 18 16 C18.99 16.33 19.98 16.66 21 17 C20.67 18.65 20.34 20.3 20 22 C20.66 22 21.32 22 22 22 C22 18.04 22 14.08 22 10 C22.66 10.33 23.32 10.66 24 11 C24 13.97 24 16.94 24 20 C70.53 20 117.06 20 165 20 C165 17.03 165 14.06 165 11 C165.66 11 166.32 11 167 11 C167 14.63 167 18.26 167 22 C164.36115323 23.31942338 162.40075259 23.12289871 159.44454956 23.12025452 C158.26381866 23.12162918 157.08308777 23.12300385 155.86657715 23.12442017 C153.91370789 23.11902725 153.91370789 23.11902725 151.92138672 23.11352539 C150.54179893 23.11324343 149.16221099 23.11340142 147.78262329 23.1139679 C144.03078219 23.11425553 140.27897288 23.1083642 136.52713919 23.10139394 C132.60868076 23.09515484 128.69022166 23.09455616 124.77175903 23.09336853 C117.34863184 23.09025686 109.92551933 23.08204567 102.50239861 23.07201904 C94.0526964 23.06085282 85.60299349 23.05534617 77.15328574 23.05032361 C59.76884866 23.03986293 42.38442588 23.02226665 25 23 C24.31600877 24.85903684 24.31600877 24.85903684 24 27 C25.85164036 29.75256794 25.85164036 29.75256794 28 32 C27.67 32.66 27.34 33.32 27 34 C20.22720191 28.31463197 14.2306272 22.47138598 9 15.3125 C8.55615967 14.70784912 8.11231934 14.10319824 7.6550293 13.48022461 C4.60997845 9.18764959 2.26254199 4.75029071 0 0 Z " fill="#1E3469" transform="translate(18,161)"/>
<path d="M0 0 C7 0 7 0 10.3125 2.1875 C14.2260791 6.28310603 15.28838547 9.76435244 15.3125 15.375 C15.19735878 20.40734851 14.63681929 23.69319516 12 28 C7.53116105 31.87299376 6.19271858 32 0 32 C0 21.44 0 10.88 0 0 Z " fill="#243F82" transform="translate(112,80)"/>
<path d="M0 0 C36.92963558 -1.21050243 66.80615337 6.18920002 94.48144531 32.09570312 C111.66552766 48.69409006 126.11598393 74.4243046 127.11352539 98.77075195 C127.10567017 100.23967896 127.10567017 100.23967896 127.09765625 101.73828125 C127.09282227 103.33833008 127.09282227 103.33833008 127.08789062 104.97070312 C127.07532227 106.62489258 127.07532227 106.62489258 127.0625 108.3125 C127.05798828 109.43462891 127.05347656 110.55675781 127.04882812 111.71289062 C127.03707313 114.4753151 127.02064077 117.23762998 127 120 C126.67 120 126.34 120 126 120 C125.93268677 119.01942627 125.93268677 119.01942627 125.86401367 118.01904297 C123.86354526 89.68364106 118.47957847 62.82925525 99 41 C98.33742188 40.195625 97.67484375 39.39125 96.9921875 38.5625 C78.57284758 16.81272592 51.60785046 5.06787487 23.62011719 2.19775391 C16.09063496 1.62946462 8.54130175 1.78338814 1 2 C0.67 1.34 0.34 0.68 0 0 Z " fill="#2E4064" transform="translate(98,0)"/>
<path d="M0 0 C16.41108686 -0.02332895 32.82216837 -0.04097916 49.23326778 -0.05181217 C56.85270173 -0.05697514 64.47212539 -0.06401784 72.09155273 -0.07543945 C78.73028827 -0.08538628 85.36901637 -0.09185342 92.00775915 -0.09408849 C95.52504336 -0.09539561 99.04230626 -0.09848147 102.55958366 -0.10573006 C106.47974938 -0.11374389 110.39989399 -0.11399114 114.32006836 -0.11352539 C115.49466614 -0.11712067 116.66926392 -0.12071594 117.87945557 -0.12442017 C119.47179268 -0.12235817 119.47179268 -0.12235817 121.09629822 -0.12025452 C122.02454375 -0.12117631 122.95278929 -0.1220981 123.90916348 -0.12304783 C126 0 126 0 127 1 C127 2.98 127 4.96 127 7 C104.23 7 81.46 7 58 7 C58 6.67 58 6.34 58 6 C80.11 6 102.22 6 125 6 C125 4.68 125 3.36 125 2 C84.08 2 43.16 2 1 2 C0.67 1.34 0.34 0.68 0 0 Z " fill="#0F2B55" transform="translate(50,159)"/>
<path d="M0 0 C0 3.63 0 7.26 0 11 C-45.54 11 -91.08 11 -138 11 C-138 10.67 -138 10.34 -138 10 C-93.12 10 -48.24 10 -2 10 C-2 7.03 -2 4.06 -2 1 C-46.55 1 -91.1 1 -137 1 C-137 0.67 -137 0.34 -137 0 C-119.72808591 -0.15391937 -102.45613279 -0.30195214 -85.18410873 -0.4429636 C-77.16454184 -0.50857406 -69.14499987 -0.57611587 -61.12548828 -0.64819336 C-54.1362668 -0.71100596 -47.14702569 -0.77020605 -40.15773702 -0.82505554 C-36.45645456 -0.85422841 -32.75520733 -0.88521875 -29.05397797 -0.92053413 C-24.92371305 -0.95987553 -20.79342504 -0.99115205 -16.66308594 -1.02172852 C-14.81918526 -1.04114754 -14.81918526 -1.04114754 -12.93803406 -1.06095886 C-11.81345291 -1.06799835 -10.68887177 -1.07503784 -9.5302124 -1.08229065 C-8.06456156 -1.09473485 -8.06456156 -1.09473485 -6.56930161 -1.10743046 C-4 -1 -4 -1 0 0 Z " fill="#172F61" transform="translate(183,60)"/>
<path d="M0 0 C0 0.66 0 1.32 0 2 C-1.32 2.33 -2.64 2.66 -4 3 C28.01 3 60.02 3 93 3 C93 2.34 93 1.68 93 1 C94.79379098 1.44994757 96.58498928 1.91024143 98.375 2.375 C99.37273437 2.63023438 100.37046875 2.88546875 101.3984375 3.1484375 C104 4 104 4 106 6 C65.41 6 24.82 6 -17 6 C-16 4 -16 4 -13.1640625 2.9296875 C-11.99617188 2.58164062 -10.82828125 2.23359375 -9.625 1.875 C-8.46226563 1.52179687 -7.29953125 1.16859375 -6.1015625 0.8046875 C-3 0 -3 0 0 0 Z " fill="#142E6A" transform="translate(68,45)"/>
<path d="M0 0 C7.26 0 14.52 0 22 0 C22 0.66 22 1.32 22 2 C31.57 2.33 41.14 2.66 51 3 C51.495 3.99 51.495 3.99 52 5 C35.17 4.67 18.34 4.34 1 4 C1 4.66 1 5.32 1 6 C0.34 6 -0.32 6 -1 6 C-1 5.34 -1 4.68 -1 4 C-2.65 3.67 -4.3 3.34 -6 3 C-6 2.67 -6 2.34 -6 2 C-4.02 2 -2.04 2 0 2 C0 1.34 0 0.68 0 0 Z M-6 3 C-6 3.99 -6 4.98 -6 6 C-9 8 -9 8 -12 8 C-12.05089285 15.81043705 -12.08581449 23.620831 -12.10986328 31.43139648 C-12.11875946 34.08609839 -12.13352056 36.74058227 -12.15087891 39.39526367 C-12.1752576 43.22056799 -12.18651312 47.04572566 -12.1953125 50.87109375 C-12.20563507 52.04957382 -12.21595764 53.22805389 -12.22659302 54.44224548 C-12.3259099 65.54072353 -12.3259099 65.54072353 -8.25 75.625 C-6.00395038 77.26615678 -6.00395038 77.26615678 -2.9375 77 C1.23694733 75.57891155 2.20229428 73.51144242 4.1875 69.75 C4.455625 69.1725 4.72375 68.595 5 68 C5.495 68.99 5.495 68.99 6 70 C4.37823455 74.01173558 2.94597565 77.02701218 -1 79 C-4.4375 79.5625 -4.4375 79.5625 -8 79 C-12.22237484 74.96120667 -13.8547598 71.97476386 -14.13371277 66.26133728 C-14.13752457 65.21337479 -14.14133636 64.16541229 -14.14526367 63.08569336 C-14.15164352 61.89443344 -14.15802338 60.70317352 -14.16459656 59.47581482 C-14.16570938 58.19344437 -14.1668222 56.91107391 -14.16796875 55.58984375 C-14.17129715 54.27085587 -14.17462555 52.95186798 -14.17805481 51.59291077 C-14.18403391 48.80468934 -14.18589584 46.01649887 -14.18530273 43.22827148 C-14.1852009 39.65484314 -14.19888018 36.08161256 -14.21607494 32.50823116 C-14.22985736 29.09793214 -14.22928313 25.68767029 -14.23046875 22.27734375 C-14.24124702 20.35075172 -14.24124702 20.35075172 -14.25224304 18.38523865 C-14.24916641 17.19713089 -14.24608978 16.00902313 -14.24291992 14.78491211 C-14.24505745 13.21416176 -14.24505745 13.21416176 -14.24723816 11.61167908 C-14 9 -14 9 -12 6 C-11.01 5.67 -10.02 5.34 -9 5 C-11.31 4.67 -13.62 4.34 -16 4 C-12.42181037 1.66041447 -10.07775191 2.0732382 -6 3 Z " fill="#1F3266" transform="translate(75,72)"/>
<path d="M0 0 C0.33 0 0.66 0 1 0 C1.21672879 6.56097165 0.58226543 12.21894164 -1.0625 18.5625 C-1.39531982 19.861875 -1.39531982 19.861875 -1.73486328 21.1875 C-9.63930578 50.62249847 -28.78218694 75.54395192 -55 91 C-64.85032083 96.49370848 -75.72719643 101.49104204 -87 103 C-87.99 102.34 -88.98 101.68 -90 101 C-89.06542969 100.81566406 -88.13085938 100.63132812 -87.16796875 100.44140625 C-60.49395694 94.72923566 -35.59631554 78.63503379 -20.22363281 55.91650391 C-9.93764959 39.80617504 -4.14746946 23.59059952 -1.578125 4.7265625 C-1 1 -1 1 0 0 Z " fill="#283959" transform="translate(224,120)"/>
<path d="M0 0 C8 0 8 0 10.9375 2.25 C12.76034171 4.68045561 13.67031735 6.03285617 14 9 C13.01 9.495 13.01 9.495 12 10 C11.34 7.69 10.68 5.38 10 3 C7.36 2.67 4.72 2.34 2 2 C2.1074162 10.8316372 2.22003211 19.66318815 2.33933926 28.49467278 C2.39457017 32.5952165 2.44799044 36.69576735 2.49731445 40.79638672 C2.54495553 44.75161172 2.59729824 48.7067488 2.65294075 52.66186905 C2.67336547 54.17296289 2.69207836 55.68408084 2.70907402 57.19521713 C2.73311551 59.30715424 2.76317022 61.41892468 2.79467773 63.53076172 C2.81022202 64.73433319 2.8257663 65.93790466 2.84178162 67.177948 C2.81018777 69.95074633 2.81018777 69.95074633 4 72 C2.68 71.34 1.36 70.68 0 70 C0 46.9 0 23.8 0 0 Z " fill="#142F6B" transform="translate(164,80)"/>
<path d="M0 0 C32.57446428 -1.06774593 60.07283545 4.0794842 86.453125 24.51953125 C86.96359375 25.00808594 87.4740625 25.49664063 88 26 C88 26.66 88 27.32 88 28 C84.94959913 26.58152917 82.38486515 24.87822455 79.6875 22.875 C55.81026478 6.10864943 29.75858277 1.1739556 1 2 C0.67 1.34 0.34 0.68 0 0 Z " fill="#435271" transform="translate(98,0)"/>
<path d="M0 0 C0.33 0.99 0.66 1.98 1 3 C0.67 3.33 0.34 3.66 0 4 C1.9254644 6.2236068 1.9254644 6.2236068 5 7 C5 7.66 5 8.32 5 9 C6.98 8.67 8.96 8.34 11 8 C11 8.66 11 9.32 11 10 C10.14535156 10.19335938 9.29070313 10.38671875 8.41015625 10.5859375 C7.30542969 10.84632812 6.20070313 11.10671875 5.0625 11.375 C3.96035156 11.63023438 2.85820313 11.88546875 1.72265625 12.1484375 C0.37494141 12.56996094 0.37494141 12.56996094 -1 13 C-1.33 13.66 -1.66 14.32 -2 15 C-2 14.34 -2 13.68 -2 13 C-4.475 12.505 -4.475 12.505 -7 12 C-7.96423026 13.39176632 -8.92111602 14.7886223 -9.875 16.1875 C-10.67550781 17.35345703 -10.67550781 17.35345703 -11.4921875 18.54296875 C-14.31617569 23.14475261 -15.25138152 26.59529732 -15 32 C-17.97 32.495 -17.97 32.495 -21 33 C-17.28339576 20.90769913 -8.95529209 8.95529209 0 0 Z M-2 5 C-2 8 -2 8 -2 8 Z " fill="#1C3671" transform="translate(36,38)"/>
<path d="M0 0 C7 0 7 0 10.3125 2.1875 C14.2260791 6.28310603 15.28838547 9.76435244 15.3125 15.375 C15.19735878 20.40734851 14.63681929 23.69319516 12 28 C7.53116105 31.87299376 6.19271858 32 0 32 C0 21.44 0 10.88 0 0 Z M2 2 C1.80380776 6.29131609 1.61951417 10.58306102 1.4375 14.875 C1.38142578 16.09832031 1.32535156 17.32164063 1.26757812 18.58203125 C1.21923828 19.74863281 1.17089844 20.91523437 1.12109375 22.1171875 C1.0739624 23.19597168 1.02683105 24.27475586 0.97827148 25.38623047 C0.80827239 27.9830139 0.80827239 27.9830139 2 30 C4.02463255 30.65213292 4.02463255 30.65213292 6 31 C6 30.34 6 29.68 6 29 C6.598125 28.95875 7.19625 28.9175 7.8125 28.875 C10.26902214 28.1443785 10.26902214 28.1443785 11.609375 25.38671875 C13.14017057 21.65862954 13.43313034 18.95321444 13.4375 14.9375 C13.45683594 13.75027344 13.47617188 12.56304687 13.49609375 11.33984375 C12.89615524 7.30088762 12.0568598 5.70014359 9 3 C5.35817665 2.10944264 5.35817665 2.10944264 2 2 Z " fill="#172E65" transform="translate(112,80)"/>
<path d="M0 0 C0 0.66 0 1.32 0 2 C0.87852284 1.98950402 0.87852284 1.98950402 1.77479362 1.97879601 C16.01229248 1.80938917 30.24987837 1.65109124 44.48763847 1.50522423 C51.37285455 1.43441548 58.25799101 1.35981897 65.14306641 1.27636719 C71.78246189 1.19590378 78.42191358 1.12591417 85.06149673 1.06242752 C87.59977167 1.03642241 90.1380126 1.00685523 92.67620468 0.97373581 C96.22014886 0.92809014 99.76400048 0.89489592 103.30810547 0.86474609 C104.36689911 0.8482048 105.42569275 0.83166351 106.51657104 0.81462097 C107.95951538 0.80612373 107.95951538 0.80612373 109.43161011 0.79745483 C110.68985753 0.78362794 110.68985753 0.78362794 111.97352409 0.76952171 C114 1 114 1 116 3 C75.41 3 34.82 3 -7 3 C-5.40442685 -0.19114631 -3.35905282 0 0 0 Z " fill="#203359" transform="translate(58,48)"/>
<path d="M0 0 C3 1 3 1 4.90234375 4.32421875 C5.5952034 5.77180654 6.27268266 7.22682111 6.9375 8.6875 C7.29086426 9.45553955 7.64422852 10.2235791 8.00830078 11.01489258 C15.56488616 27.86987892 17.39759116 44.75498336 17 63 C16.01 63.495 16.01 63.495 15 64 C14.98018066 63.42668945 14.96036133 62.85337891 14.93994141 62.26269531 C14.41874808 47.9054028 13.38885684 34.75798519 8.953125 21.00390625 C7.79866506 17.36546488 6.87397178 13.71438006 6 10 C4.35 10.33 2.7 10.66 1 11 C1 9.68 1 8.36 1 7 C1.66 6.67 2.32 6.34 3 6 C2.01 4.02 1.02 2.04 0 0 Z " fill="#1B3166" transform="translate(202,58)"/>
<path d="M0 0 C0.99 0.99 0.99 0.99 2 2 C1.27039063 2.14695313 0.54078125 2.29390625 -0.2109375 2.4453125 C-20.86822408 6.88280369 -39.84687857 14.0668374 -56 28 C-57.53176586 29.17963578 -59.07282956 30.34734474 -60.625 31.5 C-61.60339844 32.22703125 -61.60339844 32.22703125 -62.6015625 32.96875 C-63.06304687 33.3090625 -63.52453125 33.649375 -64 34 C-58.23572432 20.78292344 -38.16904861 11.69668055 -25.38671875 6.546875 C-20.23538472 4.63424502 -14.95663255 3.24876524 -9.625 1.9375 C-8.70243408 1.70893311 -7.77986816 1.48036621 -6.8293457 1.24487305 C-5.54096802 0.95157104 -5.54096802 0.95157104 -4.2265625 0.65234375 C-3.45908691 0.47695068 -2.69161133 0.30155762 -1.90087891 0.12084961 C-1.27358887 0.08096924 -0.64629883 0.04108887 0 0 Z " fill="#32415F" transform="translate(97,0)"/>
<path d="M0 0 C17.91515835 -0.7230333 36.94468514 1.43979527 53 10 C53 10.66 53 11.32 53 12 C52.33613281 11.79503906 51.67226562 11.59007812 50.98828125 11.37890625 C50.10527344 11.10949219 49.22226563 10.84007812 48.3125 10.5625 C47.44238281 10.29566406 46.57226562 10.02882813 45.67578125 9.75390625 C35.84706788 6.92435551 35.84706788 6.92435551 26 8 C26 6.68 26 5.36 26 4 C20.39658479 2.87743029 14.8181699 2.67278683 9.125 2.4375 C8.15046875 2.39431641 7.1759375 2.35113281 6.171875 2.30664062 C3.78137198 2.20117726 1.39077556 2.09905825 -1 2 C-0.67 1.34 -0.34 0.68 0 0 Z " fill="#1F3670" transform="translate(105,6)"/>
<path d="M0 0 C7.29370415 -0.0232596 14.58740018 -0.04098411 21.88113403 -0.05181217 C25.26858844 -0.05701137 28.65601731 -0.06405465 32.04345703 -0.07543945 C35.9456448 -0.08761141 39.84779666 -0.0932527 43.75 -0.09765625 C44.95551514 -0.10281754 46.16103027 -0.10797882 47.40307617 -0.11329651 C53.36809012 -0.11369152 59.10328871 0.08181597 65 1 C65 1.33 65 1.66 65 2 C43.88 2.33 22.76 2.66 1 3 C0.67 2.01 0.34 1.02 0 0 Z " fill="#2B3A67" transform="translate(51,165)"/>
<path d="M0 0 C2.475 0.495 2.475 0.495 5 1 C7.26432801 6.44010835 7.27540912 11.32731116 7.23046875 17.11328125 C7.23001053 18.08226852 7.22955231 19.0512558 7.2290802 20.04960632 C7.22606723 22.09452543 7.21820964 24.13944244 7.20581055 26.18432617 C7.18762241 29.29158803 7.18530067 32.39854995 7.18554688 35.50585938 C7.18062811 37.50000254 7.17479824 39.49414371 7.16796875 41.48828125 C7.16685593 42.40732742 7.1657431 43.3263736 7.16459656 44.27326965 C7.12369424 49.92079153 6.71372156 55.3966628 6 61 C5.34 61 4.68 61 4 61 C4.00222061 60.33236633 4.00444122 59.66473267 4.00672913 58.97686768 C4.02883644 52.03406305 4.04392944 45.09126842 4.05493164 38.1484375 C4.05996332 35.55663649 4.06678927 32.96483833 4.07543945 30.37304688 C4.08755591 26.64973245 4.09323995 22.92645553 4.09765625 19.203125 C4.10281754 18.04258606 4.10797882 16.88204712 4.11329651 15.68634033 C4.11337204 14.60552185 4.11344757 13.52470337 4.11352539 12.41113281 C4.115746 11.46071106 4.11796661 10.51028931 4.12025452 9.53106689 C3.95832025 6.12274211 3.73868687 3.82732929 1.4375 1.25 C0.963125 0.8375 0.48875 0.425 0 0 Z " fill="#1C2F64" transform="translate(76,78)"/>
<path d="M0 0 C4.31852411 1.25095339 8.62853918 2.52902758 12.9375 3.8125 C14.16919922 4.16892578 15.40089844 4.52535156 16.66992188 4.89257812 C17.83974609 5.24384766 19.00957031 5.59511719 20.21484375 5.95703125 C21.84087524 6.43619995 21.84087524 6.43619995 23.49975586 6.92504883 C24.32483643 7.27978271 25.14991699 7.6345166 26 8 C26.33 8.99 26.66 9.98 27 11 C27.99 11.33 28.98 11.66 30 12 C22.08 12 14.16 12 6 12 C9 9 9 9 14 7 C9.05 5.35 4.1 3.7 -1 2 C-0.67 1.34 -0.34 0.68 0 0 Z " fill="#1D3875" transform="translate(134,37)"/>
<path d="M0 0 C0.66 0 1.32 0 2 0 C0.95840169 17.01277233 -8.04253478 33.53638505 -18 47 C-18.66 46.34 -19.32 45.68 -20 45 C-19.63648438 44.56171875 -19.27296875 44.1234375 -18.8984375 43.671875 C-14.30320446 37.87481178 -11.168927 31.65740967 -8 25 C-7.50242188 24.0925 -7.00484375 23.185 -6.4921875 22.25 C-4.53644515 17.99037269 -3.44338546 13.66220814 -2.3125 9.125 C-2.08755859 8.24585938 -1.86261719 7.36671875 -1.63085938 6.4609375 C-1.08111975 4.30876536 -0.53768545 2.15520924 0 0 Z " fill="#1F3366" transform="translate(215,131)"/>
<path d="M0 0 C2.475 0.495 2.475 0.495 5 1 C7.0112063 6.78994033 7.19884182 11.77794958 6.9765625 17.87109375 C6.95153656 18.793423 6.92651062 19.71575226 6.90072632 20.66603088 C6.81904619 23.59025714 6.72225757 26.51375457 6.625 29.4375 C6.56670724 31.42900741 6.50940517 33.42054408 6.453125 35.41210938 C6.31354527 40.27515309 6.16042081 45.13760098 6 50 C5.67 50 5.34 50 5 50 C4.97494385 48.71834961 4.9498877 47.43669922 4.92407227 46.11621094 C4.82988405 41.3600875 4.7296911 36.60410621 4.62768555 31.84814453 C4.58437991 29.78991013 4.54270171 27.73164082 4.50268555 25.67333984 C4.44487725 22.71441121 4.38121304 19.7556576 4.31640625 16.796875 C4.29969376 15.87694763 4.28298126 14.95702026 4.26576233 14.00921631 C4.24581711 13.1486261 4.22587189 12.28803589 4.20532227 11.40136719 C4.18977798 10.64635925 4.1742337 9.89135132 4.15821838 9.11346436 C3.849695 4.99224177 3.15822822 2.7462854 0 0 Z " fill="#092263" transform="translate(76,78)"/>
<path d="M0 0 C6.80833684 4.9243861 9.09051272 9.36988295 10.6875 17.5 C10.790625 18.325 10.89375 19.15 11 20 C10.34 20 9.68 20 9 20 C9.226875 20.70125 9.45375 21.4025 9.6875 22.125 C10.09532639 25.87700275 8.86377293 27.79431057 7 31 C6.34 30.67 5.68 30.34 5 30 C5.48339844 29.20335937 5.48339844 29.20335937 5.9765625 28.390625 C8.27786694 23.01505891 7.91894507 15.96506906 6.20703125 10.44140625 C4.5663596 7.01548268 3.18129423 5.12086282 0 3 C0 2.01 0 1.02 0 0 Z " fill="#162C60" transform="translate(131,76)"/>
<path d="M0 0 C10.45203216 4.74112799 19.14123558 10.61731795 27 19 C24.75 18.8125 24.75 18.8125 22 18 C20 15.5 20 15.5 18 13 C12.41538948 8.70154221 6.20223966 5.31372615 0 2 C0 1.34 0 0.68 0 0 Z " fill="#21346A" transform="translate(159,17)"/>
<path d="M0 0 C2.78649048 2.78649048 4.17423942 6.18165709 5.875 9.6875 C8.41770378 14.90342658 11.0709591 19.98910715 14 25 C13.01 25 12.02 25 11 25 C9.55512016 22.50402309 8.11907628 20.00359387 6.6875 17.5 C6.28337891 16.80390625 5.87925781 16.1078125 5.46289062 15.390625 C2.79775385 10.71038481 0.77052218 6.08810258 -1 1 C-0.67 0.67 -0.34 0.34 0 0 Z " fill="#28385A" transform="translate(8,152)"/>
<path d="M0 0 C8.25 0 16.5 0 25 0 C24 2 24 2 22.05078125 2.65234375 C17.72424093 3.14538099 13.52415959 2.84384928 9.1875 2.5625 C7.86202148 2.48418945 7.86202148 2.48418945 6.50976562 2.40429688 C4.33949592 2.27525381 2.16969307 2.13840044 0 2 C0 1.34 0 0.68 0 0 Z " fill="#0E2D68" transform="translate(146,154)"/>
<path d="M0 0 C0.33 0.66 0.66 1.32 1 2 C-0.65 2.66 -2.3 3.32 -4 4 C-4 4.66 -4 5.32 -4 6 C-4.66 6.391875 -5.32 6.78375 -6 7.1875 C-9.42911336 9.25925599 -12.12272203 11.74291137 -15.03515625 14.4765625 C-17.07057811 16.05472259 -18.48452511 16.58542285 -21 17 C-17.73359812 12.41028658 -13.9066701 9.47078468 -9.375 6.25 C-8.694375 5.75628906 -8.01375 5.26257813 -7.3125 4.75390625 C-2.35344587 1.17672294 -2.35344587 1.17672294 0 0 Z " fill="#1C3266" transform="translate(58,21)"/>
<path d="M0 0 C0.66 0 1.32 0 2 0 C2.33 1.32 2.66 2.64 3 4 C3.66 4 4.32 4 5 4 C5.7425 5.423125 5.7425 5.423125 6.5 6.875 C9.41386129 12.01648713 13.23928722 16.46341201 17 21 C16.34 21.66 15.68 22.32 15 23 C13.24209039 20.67228521 11.4937391 18.33829645 9.75 16 C9.25886719 15.35160156 8.76773437 14.70320312 8.26171875 14.03515625 C4.93217912 9.55137622 2.37112156 5.05839267 0 0 Z " fill="#1F3165" transform="translate(18,161)"/>
<path d="M0 0 C0 1.32 0 2.64 0 4 C-0.6290625 4.03738281 -1.258125 4.07476562 -1.90625 4.11328125 C-7.83768122 4.56885805 -12.49773237 5.77978674 -18 8 C-18.99 8 -19.98 8 -21 8 C-21 7.34 -21 6.68 -21 6 C-18.06497405 4.99263372 -15.12660539 3.99539496 -12.1875 3 C-11.35412109 2.71382812 -10.52074219 2.42765625 -9.66210938 2.1328125 C-8.45844727 1.72675781 -8.45844727 1.72675781 -7.23046875 1.3125 C-6.49207764 1.06113281 -5.75368652 0.80976562 -4.99291992 0.55078125 C-3 0 -3 0 0 0 Z " fill="#192D60" transform="translate(105,33)"/>
<path d="M0 0 C0.99 0.33 1.98 0.66 3 1 C3.11214844 1.86109375 3.22429688 2.7221875 3.33984375 3.609375 C4.0222407 7.11423034 5.12438968 9.9886444 6.5625 13.25 C9 18.80169972 9 18.80169972 9 21 C8.34 21 7.68 21 7 21 C6.00988557 18.81690366 5.03294432 16.62932734 4.0625 14.4375 C3.78470703 13.82841797 3.50691406 13.21933594 3.22070312 12.59179688 C1.36408217 8.36406963 0.46734921 4.59658658 0 0 Z " fill="#1A2E67" transform="translate(10,139)"/>
<path d="M0 0 C12.66970387 3.07517084 12.66970387 3.07517084 18 5 C18 5.66 18 6.32 18 7 C15.03 6.67 12.06 6.34 9 6 C9 5.34 9 4.68 9 4 C7.02 4 5.04 4 3 4 C3 3.34 3 2.68 3 2 C2.01 2 1.02 2 0 2 C0 1.34 0 0.68 0 0 Z " fill="#172A62" transform="translate(114,31)"/>
<path d="M0 0 C2.29141286 -0.05384521 4.58318188 -0.09272087 6.875 -0.125 C8.78925781 -0.15980469 8.78925781 -0.15980469 10.7421875 -0.1953125 C14 0 14 0 16 2 C12.64035843 3.11988052 10.41909335 2.71980913 7 2 C6.01 2.495 6.01 2.495 5 3 C3.00039988 3.039992 0.99952758 3.04346799 -1 3 C-0.67 2.01 -0.34 1.02 0 0 Z " fill="#224083" transform="translate(79,72)"/>
<path d="M0 0 C0 0.99 0 1.98 0 3 C3.34252724 3.07427838 5.8035914 3.06546953 9 2 C9.33 2.66 9.66 3.32 10 4 C9.01 4.66 8.02 5.32 7 6 C7.99 7.485 7.99 7.485 9 9 C8.01 9.495 8.01 9.495 7 10 C6.484375 9.401875 5.96875 8.80375 5.4375 8.1875 C2.43466313 5.4926464 -0.24873609 4.44279381 -4 3 C-4 2.34 -4 1.68 -4 1 C-2 0 -2 0 0 0 Z " fill="#1D326A" transform="translate(131,111)"/>
<path d="M0 0 C3.63758605 1.21252868 4.12831024 2.60772531 5.80078125 5.91796875 C6.11402344 6.56378906 6.42726562 7.20960937 6.75 7.875 C7.07871094 8.51308594 7.40742188 9.15117188 7.74609375 9.80859375 C10.12667411 14.61997768 10.12667411 14.61997768 9 18 C6.92827718 14.89241577 5.15714008 11.71942464 3.375 8.4375 C2.74335938 7.28121094 2.11171875 6.12492187 1.4609375 4.93359375 C0 2 0 2 0 0 Z " fill="#263757" transform="translate(207,53)"/>
<path d="M0 0 C0 2.31 0 4.62 0 7 C-3.75 8.125 -3.75 8.125 -6 7 C-6 5.68 -6 4.36 -6 3 C-2.78571429 0 -2.78571429 0 0 0 Z " fill="#1B3975" transform="translate(137,107)"/>
<path d="M0 0 C1.3303125 0.2784375 1.3303125 0.2784375 2.6875 0.5625 C5.85178811 0.98042484 7.94839642 0.80777742 11 0 C11.33 0.66 11.66 1.32 12 2 C9.87607494 2.6700834 7.75082476 3.33596797 5.625 4 C4.44164062 4.37125 3.25828125 4.7425 2.0390625 5.125 C-1 6 -1 6 -3 6 C-2.67 4.68 -2.34 3.36 -2 2 C-1.34 2 -0.68 2 0 2 C0 1.34 0 0.68 0 0 Z " fill="#193066" transform="translate(51,41)"/>
<path d="M0 0 C6.46712188 1.16194152 12.09622349 3.1248748 18 6 C18 6.66 18 7.32 18 8 C11.5811453 6.26375242 5.86215164 4.14819255 0 1 C0 0.67 0 0.34 0 0 Z " fill="#203568" transform="translate(140,10)"/>
<path d="M0 0 C1.65 0 3.3 0 5 0 C5 0.66 5 1.32 5 2 C3.06643218 2.69848264 1.12797702 3.38344814 -0.8125 4.0625 C-1.89144531 4.44535156 -2.97039062 4.82820312 -4.08203125 5.22265625 C-7 6 -7 6 -10 5 C-6.55549263 2.70366176 -4.06187717 2.45983515 0 2 C0 1.34 0 0.68 0 0 Z " fill="#1C356A" transform="translate(146,210)"/>
<path d="M0 0 C3 1 3 1 4.75 3.875 C6 7 6 7 5 10 C2.9375 10.6875 2.9375 10.6875 1 11 C1 9.68 1 8.36 1 7 C1.66 6.67 2.32 6.34 3 6 C2.01 4.02 1.02 2.04 0 0 Z " fill="#1E3871" transform="translate(202,58)"/>
<path d="M0 0 C0.66 0.66 1.32 1.32 2 2 C-1.0684847 4.97550031 -2.46236331 5.96474513 -6.8125 6.25 C-7.864375 6.1675 -8.91625 6.085 -10 6 C-6.87567603 3.47650757 -3.61939504 1.72743854 0 0 Z " fill="#1F3669" transform="translate(69,15)"/>
<path d="M0 0 C0.66 0 1.32 0 2 0 C2.33 1.98 2.66 3.96 3 6 C1.02 6.33 -0.96 6.66 -3 7 C-1.125 1.125 -1.125 1.125 0 0 Z " fill="#1F376D" transform="translate(18,64)"/>
<path d="M0 0 C4.96768758 1.55240237 9.17867057 4.51054781 13 8 C13 8.66 13 9.32 13 10 C9.74035658 8.51222697 7.06830707 6.64333184 4.25 4.4375 C3.45078125 3.81746094 2.6515625 3.19742187 1.828125 2.55859375 C1.22484375 2.04425781 0.6215625 1.52992187 0 1 C0 0.67 0 0.34 0 0 Z " fill="#33476A" transform="translate(173,18)"/>
<path d="M0 0 C4.66283606 3.51582826 7.72210402 6.03648545 9 12 C8.34 12 7.68 12 7 12 C6.05598958 10.2421875 5.11197917 8.484375 4.16796875 6.7265625 C2.95236507 4.69497635 2.95236507 4.69497635 0 3 C0 2.01 0 1.02 0 0 Z " fill="#1E294C" transform="translate(131,76)"/>
<path d="M0 0 C-0.66 1.32 -1.32 2.64 -2 4 C-3.32 3.67 -4.64 3.34 -6 3 C-6.33 3.99 -6.66 4.98 -7 6 C-8 3 -8 3 -8 1 C-2.25 -1.125 -2.25 -1.125 0 0 Z " fill="#1A3170" transform="translate(114,31)"/>
<path d="M0 0 C0.33 0.66 0.66 1.32 1 2 C3.01669827 3.13350534 3.01669827 3.13350534 5 4 C1.06329512 5.31223496 -1.12488144 4.24296256 -5 3 C-2.25 0 -2.25 0 0 0 Z " fill="#1D386D" transform="translate(81,210)"/>
<path d="M0 0 C0.66 0.33 1.32 0.66 2 1 C-0.64 3.97 -3.28 6.94 -6 10 C-6.33 9.34 -6.66 8.68 -7 8 C-6.34 7.01 -5.68 6.02 -5 5 C-4.34 5 -3.68 5 -3 5 C-2.690625 4.360625 -2.38125 3.72125 -2.0625 3.0625 C-1 1 -1 1 0 0 Z " fill="#1F3264" transform="translate(194,178)"/>
<path d="M0 0 C-0.99 1.485 -0.99 1.485 -2 3 C-5.125 3.1875 -5.125 3.1875 -8 3 C-8.33 2.34 -8.66 1.68 -9 1 C-3.375 -1.125 -3.375 -1.125 0 0 Z " fill="#132458" transform="translate(77,43)"/>
<path d="M0 0 C0 0.99 0 1.98 0 3 C-2.31 4.32 -4.62 5.64 -7 7 C-5.54744301 3.17053157 -3.57104439 1.87949705 0 0 Z " fill="#193268" transform="translate(175,196)"/>
<path d="M0 0 C2.475 0.495 2.475 0.495 5 1 C5.33 2.98 5.66 4.96 6 7 C5.34 7 4.68 7 4 7 C3.896875 6.401875 3.79375 5.80375 3.6875 5.1875 C2.91123545 2.71756736 1.92911079 1.67748765 0 0 Z " fill="#1A3569" transform="translate(76,78)"/>
<path d="M0 0 C0 0.99 0 1.98 0 3 C1.32 3.33 2.64 3.66 4 4 C3.67 4.66 3.34 5.32 3 6 C0.69 5.01 -1.62 4.02 -4 3 C-4 2.34 -4 1.68 -4 1 C-2 0 -2 0 0 0 Z " fill="#162554" transform="translate(131,111)"/>
<path d="M0 0 C0.33 0.99 0.66 1.98 1 3 C-0.65 4.65 -2.3 6.3 -4 8 C-4.66 7.67 -5.32 7.34 -6 7 C-4.02 4.69 -2.04 2.38 0 0 Z " fill="#1D305F" transform="translate(36,38)"/>
</svg>
